<svg width="32" height="32" viewBox="0 0 1903 1903" xmlns="http://www.w3.org/2000/svg" xmlns:xlink="http://www.w3.org/1999/xlink" xml:space="preserve"><rect width="1903" height="1903" fill="#0f172a"/><g transform="translate(-589 -300)"><path d="M214.82 565 0 0 628 373.629 214.82 565Z" stroke="#FFFFFF" stroke-width="60" stroke-linejoin="round" stroke-miterlimit="10" fill="none" fill-rule="evenodd" transform="matrix(-1 0 0 1 2167.5 1012.5)"/><path d="M1134.26 1582.5 913.5 1012.5 1549.5 1380.79 1134.26 1582.5Z" stroke="#FFFFFF" stroke-width="60" stroke-linejoin="round" stroke-miterlimit="10" fill="none" fill-rule="evenodd"/><path d="M1942.5 1575.99 1145.5 1582.5 1547.03 1375.5 1942.5 1575.99Z" stroke="#FFFFFF" stroke-width="60" stroke-linejoin="round" stroke-miterlimit="10" fill="none" fill-rule="evenodd"/><path d="M9.70915 597.584C0.714779 608.438 23.406 404.519 22.3778 305.42 21.3497 206.321-10.4236-29.145 3.54089 2.98736L304 434.591 9.70915 597.584Z" stroke="#FFFFFF" stroke-width="60" stroke-linejoin="round" stroke-miterlimit="10" fill="none" fill-rule="evenodd" transform="matrix(-1 0 0 1 1549.5 770.5)"/><path d="M1236.55 1198.5 951.5 1023.5 1311.5 1092.72 1236.55 1198.5Z" stroke="#FFFFFF" stroke-width="60" stroke-linejoin="round" stroke-miterlimit="10" fill="none" fill-rule="evenodd"/><path d="M268.42 174 0 0 339 68.8209 268.42 174Z" stroke="#FFFFFF" stroke-width="60" stroke-linejoin="round" stroke-miterlimit="10" fill="none" fill-rule="evenodd" transform="matrix(-1 0 0 1 2114.5 1025.5)"/><path d="M1553.36 1368.08C1544.65 1378.94 1554.62 1174.26 1553.62 1075.16 1552.62 976.063 1533.85 741.364 1547.38 773.496L1838.5 1205.09 1553.36 1368.08Z" stroke="#FFFFFF" stroke-width="60" stroke-linejoin="round" stroke-miterlimit="10" fill="none" fill-rule="evenodd"/><path d="M938 1705C845.492 1705 770.5 1603.48 770.5 1478.25L770.5 1478.25C770.5 1353.02 695.508 1251.5 603 1251.5 695.508 1251.5 770.5 1149.98 770.5 1024.75L770.5 1024.75C770.5 899.519 845.493 798 938.001 798" stroke="#FFFFFF" stroke-width="80" stroke-linejoin="round" stroke-miterlimit="10" fill="none" fill-rule="evenodd"/><path d="M2143 798C2235.51 798 2310.5 899.519 2310.5 1024.75L2310.5 1024.75C2310.5 1149.98 2385.49 1251.5 2478 1251.5 2385.49 1251.5 2310.5 1353.02 2310.5 1478.25L2310.5 1478.25C2310.5 1603.48 2235.51 1705 2143 1705" stroke="#FFFFFF" stroke-width="80" stroke-linejoin="round" stroke-miterlimit="10" fill="none" fill-rule="evenodd"/></g></svg>