<svg width="2178" height="2179" xmlns="http://www.w3.org/2000/svg" xmlns:xlink="http://www.w3.org/1999/xlink" xml:space="preserve" overflow="hidden"><g transform="translate(-455 -105)"><path d="M469 1194.5C469 600.518 950.294 119 1544 119 2137.71 119 2619 600.518 2619 1194.5 2619 1788.48 2137.71 2270 1544 2270 950.294 2270 469 1788.48 469 1194.5Z" stroke="#0F204B" stroke-width="27.5" stroke-linejoin="round" stroke-miterlimit="10" fill="#0F204B" fill-rule="evenodd"/><path d="M193.27 454 0 0 565 300.226 193.27 454Z" stroke="#FFFFFF" stroke-width="20.625" stroke-linejoin="round" stroke-miterlimit="10" fill="#0F204B" fill-rule="evenodd" transform="matrix(-1 0 0 1 2093.5 994.5)"/><path d="M1164.7 1452.5 966.5 994.5 1537.5 1290.42 1164.7 1452.5Z" stroke="#FFFFFF" stroke-width="20.625" stroke-linejoin="round" stroke-miterlimit="10" fill="#0F204B" fill-rule="evenodd"/><path d="M1890.5 1447.28 1174.5 1452.5 1535.23 1286.5 1890.5 1447.28Z" stroke="#FFFFFF" stroke-width="20.625" stroke-linejoin="round" stroke-miterlimit="10" fill="#0F204B" fill-rule="evenodd"/><path d="M8.71906 479.666C0.64189 488.378 21.0192 324.698 20.0959 245.153 19.1726 165.608-9.36063-23.394 3.17981 2.39788L273 348.836 8.71906 479.666Z" stroke="#FFFFFF" stroke-width="20.625" stroke-linejoin="round" stroke-miterlimit="10" fill="#0F204B" fill-rule="evenodd" transform="matrix(-1 0 0 1 1537.5 800.5)"/><path d="M1256.04 1144.5 999.5 1003.5 1323.5 1059.27 1256.04 1144.5Z" stroke="#FFFFFF" stroke-width="20.625" stroke-linejoin="round" stroke-miterlimit="10" fill="#0F204B" fill-rule="evenodd"/><path d="M241.499 141 0 0 305 55.7686 241.499 141Z" stroke="#FFFFFF" stroke-width="20.625" stroke-linejoin="round" stroke-miterlimit="10" fill="#0F204B" fill-rule="evenodd" transform="matrix(-1 0 0 1 2045.5 1004.5)"/><path d="M1540.26 1280.17C1532.43 1288.88 1541.39 1124.59 1540.49 1045.04 1539.6 965.5 1522.73 777.114 1534.89 802.905L1796.5 1149.34 1540.26 1280.17Z" stroke="#FFFFFF" stroke-width="20.625" stroke-linejoin="round" stroke-miterlimit="10" fill="#0F204B" fill-rule="evenodd"/><path d="M940 1648C847.492 1648 772.5 1546.48 772.5 1421.25L772.501 1421.25C772.501 1296.02 697.508 1194.5 605 1194.5 697.508 1194.5 772.501 1092.98 772.501 967.75L772.501 967.75C772.501 842.52 847.493 741 940.001 741" stroke="#FFFFFF" stroke-width="27.5" stroke-linejoin="round" stroke-miterlimit="10" fill="none" fill-rule="evenodd"/><path d="M2144 741C2236.51 741 2311.5 842.52 2311.5 967.75L2311.5 967.75C2311.5 1092.98 2386.49 1194.5 2479 1194.5 2386.49 1194.5 2311.5 1296.02 2311.5 1421.25L2311.5 1421.25C2311.5 1546.48 2236.51 1648 2144 1648" stroke="#FFFFFF" stroke-width="27.5" stroke-linejoin="round" stroke-miterlimit="10" fill="none" fill-rule="evenodd"/><path d="M1012.18 404.133 1019 399.995C1027.8 394.691 1036.47 392.258 1045.01 392.697 1053.54 393.135 1062.06 396.172 1070.57 401.807L1072.92 400.382C1071.64 392.053 1073.05 383.471 1077.17 374.635 1081.29 365.8 1087.85 358.52 1096.83 352.797L1103.65 348.66C1117.25 340.468 1130.33 338.692 1142.9 343.334 1155.47 347.975 1167.07 358.998 1177.7 376.402L1223.04 451.177 1197.91 466.417 1153.42 393.053C1146.57 381.824 1139.59 374.692 1132.48 371.66 1125.37 368.627 1118.17 369.35 1110.87 373.83L1102.87 378.681C1096.34 382.792 1092 388.181 1089.87 394.847 1087.74 401.513 1086.8 409.185 1087.06 417.862L1138.39 502.512 1113.26 517.752 1068.77 444.389C1061.92 433.159 1054.94 426.028 1047.83 422.995 1040.72 419.962 1033.52 420.686 1026.22 425.165L1018.22 430.016C1011.69 434.127 1007.35 439.516 1005.22 446.182 1003.09 452.849 1002.15 460.52 1002.41 469.197L1053.74 553.847 1028.61 569.088 952.481 443.552 977.612 428.312 990.856 450.151 993.208 448.724C990.985 439.277 991.572 430.716 994.969 423.042 998.366 415.367 1004.1 409.064 1012.18 404.133Z" fill="#FFFFFF" fill-rule="evenodd"/><text fill="#000000" fill-opacity="0" font-family="Arial,Arial_MSFontService,sans-serif" font-size="228.272" x="952.481" y="540.554">m</text><path d="M1306.22 356.44 1263.26 377.013C1257.24 379.733 1252.82 383.085 1250.01 387.07 1247.19 391.056 1246.62 395.988 1248.29 401.867L1249.86 407.139C1251.41 412.214 1254.2 415.806 1258.24 417.914 1262.28 420.022 1267.23 420.244 1273.09 418.579L1276.78 417.478C1285.48 414.975 1292.83 410.581 1298.83 404.293 1304.82 398.006 1309.44 389.26 1312.67 378.055ZM1249.22 293.402 1259.24 290.411C1278.64 284.666 1293.73 284.942 1304.49 291.24 1315.26 297.538 1323.05 309.176 1327.86 326.154L1346.5 388.628C1347.55 391.987 1349.02 394.108 1350.91 394.991 1352.8 395.874 1354.95 395.928 1357.35 395.152L1362.09 393.736 1368.92 416.629 1358.38 419.775C1348.19 422.643 1339.74 422.144 1333.03 418.277 1326.31 414.411 1321.65 408.121 1319.05 399.407L1318.89 398.88 1316.52 399.588C1316.29 409.423 1313.44 418.122 1307.98 425.683 1302.51 433.245 1293.4 439.009 1280.65 442.975L1276.44 444.234C1264.07 447.948 1253.04 447.825 1243.34 443.863 1233.64 439.902 1226.74 431.516 1222.64 418.707L1220.59 411.854C1217.68 402.202 1218.73 392.786 1223.74 383.606 1228.75 374.425 1238.19 366.452 1252.06 359.686L1300.4 336.933 1300.16 336.142C1297.49 326.204 1293.78 319.356 1289.04 315.597 1284.3 311.839 1276.86 311.487 1266.73 314.543L1255.92 317.769C1244.98 321.117 1237.91 325.212 1234.71 330.055 1231.51 334.899 1230.55 340.471 1231.84 346.773L1207.63 354.001C1204.88 338.629 1206.94 325.929 1213.82 315.902 1220.7 305.874 1232.5 298.374 1249.22 293.402Z" fill="#FFFFFF" fill-rule="evenodd"/><text fill="#000000" fill-opacity="0" font-family="Arial,Arial_MSFontService,sans-serif" font-size="160.63" x="1206.45" y="426.851">a</text><path d="M1430.67 255 1442.63 253.17 1447.07 282.223 1429.4 284.926C1421.17 286.335 1414.45 289.774 1409.24 295.242 1404.04 300.71 1399.96 307.36 1397.03 315.193L1411.42 409.249 1382.36 413.693 1360.17 268.565 1389.22 264.121 1393.54 292.359 1396.26 291.943C1397.06 281.624 1400.34 273.306 1406.1 266.989 1411.87 260.671 1420.05 256.675 1430.67 255Z" fill="#FFFFFF" fill-rule="evenodd"/><text fill="#000000" fill-opacity="0" font-family="Arial,Arial_MSFontService,sans-serif" font-size="160.523" x="1360.17" y="393.628">r</text><path d="M1464.63 254.949 1493.95 252.886 1504.25 399.34 1474.94 401.403ZM1459.09 195.792 1491.15 193.536 1493.31 224.226 1461.25 226.482Z" fill="#FFFFFF" fill-rule="evenodd"/><text fill="#000000" fill-opacity="0" font-family="Arial,Arial_MSFontService,sans-serif" font-size="207.866" x="1459.09" y="375.419">i</text><path d="M1555.43 202.749 1577.39 203.096 1576.62 251.49 1618.97 252.158 1618.57 277.421 1576.22 276.752 1575.05 351.018C1574.96 359.512 1576.77 365.799 1580.49 369.882 1584.22 373.965 1589.61 376.044 1596.66 376.121L1617.01 376.443 1616.61 401.705 1592.13 401.319C1576.34 401.03 1564.58 396.734 1556.85 388.431 1549.12 380.128 1545.38 368.052 1545.64 352.205L1546.84 276.288 1520.17 275.867 1520.56 250.604 1534.86 250.83C1542.18 251.054 1547.37 249.268 1550.42 245.472 1553.47 241.675 1555.02 235.225 1555.06 226.121Z" fill="#FFFFFF" fill-rule="evenodd"/><text fill="#000000" fill-opacity="0" font-family="Arial,Arial_MSFontService,sans-serif" font-size="198.957" x="1520.17" y="376.836">t</text><path d="M1648.88 255.344 1678.11 258.354 1663.08 404.398 1633.85 401.389ZM1653.59 196.116 1685.56 199.406 1682.41 230.01 1650.44 226.72Z" fill="#FFFFFF" fill-rule="evenodd"/><text fill="#000000" fill-opacity="0" font-family="Arial,Arial_MSFontService,sans-serif" font-size="208.282" x="1633.85" y="378.362">i</text><path d="M1792.5 274.717 1800.19 276.845C1810.09 279.613 1817.8 284.253 1823.34 290.765 1828.87 297.278 1832.51 305.563 1834.24 315.62L1836.89 316.353C1842.07 309.704 1849.28 304.85 1858.54 301.789 1867.8 298.728 1877.59 298.504 1887.92 301.118L1895.61 303.246C1910.89 307.522 1921.16 315.826 1926.4 328.157 1931.64 340.488 1931.57 356.489 1926.19 376.16L1902.87 460.443 1874.55 452.605 1897.43 369.912C1900.9 357.225 1901.31 347.255 1898.64 340.002 1895.97 332.748 1890.5 328.002 1882.24 325.762L1873.22 323.268C1865.75 321.33 1858.85 321.872 1852.54 324.892 1846.23 327.913 1840 332.491 1833.86 338.627L1807.46 434.042 1779.13 426.204 1802.01 343.511C1805.49 330.824 1805.89 320.854 1803.22 313.601 1800.56 306.347 1795.09 301.601 1786.82 299.361L1777.81 296.867C1770.33 294.929 1763.44 295.471 1757.13 298.491 1750.81 301.512 1744.59 306.09 1738.44 312.226L1712.04 407.641 1683.72 399.803 1722.87 258.304 1751.2 266.142 1744.39 290.757 1747.04 291.491C1752.39 283.394 1759.02 277.95 1766.94 275.159 1774.85 272.368 1783.37 272.221 1792.5 274.717Z" fill="#FFFFFF" fill-rule="evenodd"/><text fill="#000000" fill-opacity="0" font-family="Arial,Arial_MSFontService,sans-serif" font-size="202.139" x="1683.72" y="435.175">m</text><path d="M2027.48 392.96C2016.84 386.855 2007.28 384.855 1998.79 386.959 1990.31 389.063 1982.99 395.476 1976.84 406.198L2052.09 449.171C2057.67 437.977 2059.18 428.209 2056.63 419.866 2054.08 411.523 2047.71 404.464 2037.52 398.69ZM2039.77 370.883 2050.28 376.886C2067.47 386.592 2078.15 399.074 2082.33 414.333 2086.52 429.592 2082.85 447.504 2071.35 468.07L2063.45 481.9 1965.54 425.989 1963.08 430.291C1956.78 441.384 1954.86 451.155 1957.31 459.602 1959.77 468.05 1966.33 475.299 1977.01 481.349L1989.43 488.443C1999 493.921 2007.15 496.486 2013.87 496.137 2020.59 495.788 2025.8 492.398 2029.5 485.966L2052.63 499.177C2043.81 512.064 2033.03 519.46 2020.31 521.364 2007.58 523.269 1993.19 519.654 1977.14 510.52L1964.24 503.153C1946.29 492.843 1934.78 480.3 1929.72 465.523 1924.67 450.747 1927 434.622 1936.74 417.151L1951.73 390.907C1961.83 373.642 1974.53 363.433 1989.82 360.279 2005.12 357.126 2021.77 360.66 2039.77 370.883Z" fill="#FFFFFF" fill-rule="evenodd"/><text fill="#000000" fill-opacity="0" font-family="Arial,Arial_MSFontService,sans-serif" font-size="162.693" x="1927.13" y="501.52">e</text><path d="M1153.43 1943.37 1161.72 1947.71C1176.64 1955.45 1186.66 1964.64 1191.79 1975.28 1196.91 1985.92 1196.09 1997.89 1189.31 2011.18L1164.73 1998.32C1167.57 1992.83 1167.68 1987.72 1165.07 1982.99 1162.46 1978.27 1157.35 1973.93 1149.76 1969.97L1141.96 1965.88C1133.89 1961.64 1127.05 1959.73 1121.44 1960.15 1115.82 1960.57 1111.56 1963.51 1108.67 1968.96L1106.5 1973.11C1104.12 1978.08 1104.17 1982.29 1106.64 1985.73 1109.12 1989.17 1112.55 1991.96 1116.93 1994.11L1144.96 2008.78C1155.49 2014.49 1163.1 2022.27 1167.8 2032.14 1172.5 2042 1172.5 2051.85 1167.83 2061.7L1163.74 2069.5C1156.69 2082.61 1146.95 2090.24 1134.51 2092.37 1122.08 2094.51 1107.92 2091.44 1092.05 2083.16L1081.32 2077.55C1065.05 2069.1 1054.06 2059.17 1048.34 2047.76 1042.64 2036.35 1043.35 2023.63 1050.5 2009.59L1075.07 2022.45C1071.86 2028.67 1071.82 2034.52 1074.97 2040 1078.12 2045.47 1084.23 2050.57 1093.28 2055.29L1103.52 2060.65C1111.94 2065.09 1119.14 2066.94 1125.11 2066.21 1131.08 2065.47 1135.73 2061.95 1139.06 2055.65L1140.85 2052.23C1143.18 2047.21 1142.86 2042.75 1139.88 2038.87 1136.91 2035 1133.03 2031.86 1128.23 2029.47L1101.17 2015.31C1088.64 2008.4 1080.8 2000.17 1077.64 1990.62 1074.49 1981.07 1075.24 1971.83 1079.9 1962.91L1084.24 1954.62C1090.77 1942.48 1100.03 1935.53 1112.02 1933.78 1124 1932.03 1137.81 1935.23 1153.43 1943.37Z" fill="#FFFFFF" fill-rule="evenodd"/><text fill="#000000" fill-opacity="0" font-family="Arial,Arial_MSFontService,sans-serif" font-size="159.709" x="1044.54" y="2073.07">s</text><path d="M1285.2 1997.48 1294.14 2000.24C1312.62 2005.86 1325.87 2014.27 1333.87 2025.46 1341.88 2036.66 1343.38 2050.73 1338.37 2067.66L1311.86 2059.49C1314.43 2050.96 1313.52 2043.78 1309.11 2037.95 1304.7 2032.12 1297.14 2027.57 1286.43 2024.3L1278.02 2021.7C1266.31 2018.05 1256.53 2018.21 1248.68 2022.19 1240.84 2026.17 1235.03 2034.25 1231.24 2046.43L1223.3 2072.19C1219.57 2084.39 1219.82 2094.34 1224.06 2102.04 1228.3 2109.75 1236.29 2115.39 1248.03 2118.97L1259.07 2122.37C1269.6 2125.63 1278.19 2126.1 1284.83 2123.77 1291.48 2121.44 1296.07 2116.21 1298.6 2108.08L1324.06 2115.93C1317.81 2131.44 1308.63 2141.79 1296.52 2146.96 1284.4 2152.13 1269.53 2152.01 1251.89 2146.6L1240.32 2143.03C1220.55 2136.88 1206.58 2127.15 1198.43 2113.83 1190.27 2100.51 1189.03 2084.27 1194.72 2065.11L1203.64 2036.19C1209.73 2017.15 1219.9 2004.42 1234.14 1998.01 1248.38 1991.6 1265.4 1991.43 1285.2 1997.48Z" fill="#FFFFFF" fill-rule="evenodd"/><text fill="#000000" fill-opacity="0" font-family="Arial,Arial_MSFontService,sans-serif" font-size="157.679" x="1191.22" y="2131.04">c</text><path d="M1370.18 1958.29 1399.31 1962.18 1387.36 2051.55 1390.08 2051.92C1395.29 2043.06 1401.89 2036.79 1409.88 2033.12 1417.86 2029.45 1426.42 2028.23 1435.56 2029.46L1443.47 2030.51C1460.02 2032.77 1471.98 2039.69 1479.35 2051.25 1486.71 2062.82 1489.08 2078.71 1486.45 2098.93L1474.86 2185.61 1445.73 2181.71 1457.1 2096.67C1458.83 2083.63 1457.69 2073.68 1453.67 2066.8 1449.65 2059.93 1442.86 2055.88 1433.3 2054.65L1424.03 2053.41C1415.67 2052.38 1408.33 2053.71 1402.02 2057.4 1395.7 2061.08 1389.83 2066.5 1384.4 2073.63L1371.28 2171.76 1342.15 2167.86Z" fill="#FFFFFF" fill-rule="evenodd"/><text fill="#000000" fill-opacity="0" font-family="Arial,Arial_MSFontService,sans-serif" font-size="227.322" x="1342.15" y="2157.19">h</text><path d="M1575.48 2061.69C1563.22 2061.97 1554 2065.21 1547.83 2071.39 1541.66 2077.58 1538.72 2086.86 1539 2099.22L1625.63 2097.05C1624.61 2084.59 1620.84 2075.45 1614.35 2069.63 1607.85 2063.81 1598.74 2061.06 1587.03 2061.4ZM1574.58 2036.43 1586.68 2036.13C1606.41 2035.54 1622.01 2040.7 1633.48 2051.59 1644.95 2062.48 1651.09 2079.71 1651.88 2103.26L1652.28 2119.18 1539.57 2122 1539.69 2126.95C1540.04 2139.71 1543.45 2149.06 1549.92 2155.02 1556.39 2160.98 1565.76 2163.78 1578.03 2163.44L1592.33 2163.08C1603.35 2162.82 1611.65 2160.8 1617.22 2157.02 1622.79 2153.24 1625.5 2147.65 1625.33 2140.23L1651.96 2139.56C1651.08 2155.16 1645.69 2167.06 1635.78 2175.28 1625.88 2183.49 1611.7 2187.84 1593.24 2188.33L1578.39 2188.7C1557.69 2189.17 1541.35 2184.39 1529.38 2174.36 1517.4 2164.34 1511.06 2149.33 1510.35 2129.34L1509.59 2099.13C1509.3 2079.13 1514.89 2063.82 1526.35 2053.21 1537.8 2042.59 1553.88 2037 1574.58 2036.43Z" fill="#FFFFFF" fill-rule="evenodd"/><text fill="#000000" fill-opacity="0" font-family="Arial,Arial_MSFontService,sans-serif" font-size="152.647" x="1509.58" y="2169.65">e</text><path d="M1729.53 2021.36 1737.3 2019.51C1747.3 2017.17 1756.3 2017.52 1764.29 2020.56 1772.28 2023.59 1779.45 2029.1 1785.82 2037.08L1788.49 2036.44C1789.83 2028.12 1793.81 2020.39 1800.45 2013.25 1807.08 2006.1 1815.55 2001.19 1825.86 1998.5L1833.62 1996.66C1849.08 1993.04 1862.07 1995.37 1872.61 2003.64 1883.15 2011.92 1890.8 2025.97 1895.57 2045.8L1915.76 2130.89 1887.16 2137.67 1867.35 2054.19C1864.28 2041.4 1859.83 2032.47 1854 2027.4 1848.16 2022.33 1841.09 2020.81 1832.76 2022.83L1823.66 2024.99C1816.18 2026.89 1810.4 2030.69 1806.32 2036.38 1802.25 2042.07 1799 2049.08 1796.58 2057.42L1819.43 2153.74 1790.84 2160.53 1771.03 2077.05C1767.96 2064.26 1763.5 2055.33 1757.67 2050.26 1751.84 2045.19 1744.76 2043.66 1736.44 2045.69L1727.34 2047.85C1719.85 2049.75 1714.07 2053.55 1710 2059.24 1705.92 2064.93 1702.67 2071.94 1700.25 2080.28L1723.11 2176.6 1694.51 2183.39 1660.61 2040.54 1689.21 2033.75 1695.11 2058.6 1697.79 2057.97C1698.57 2048.29 1701.76 2040.33 1707.35 2034.07 1712.94 2027.81 1720.33 2023.57 1729.53 2021.36Z" fill="#FFFFFF" fill-rule="evenodd"/><text fill="#000000" fill-opacity="0" font-family="Arial,Arial_MSFontService,sans-serif" font-size="188.38" x="1660.61" y="2159.84">m</text><path d="M2008.96 2001.58 1970.52 2029.72C1965.1 2033.5 1961.38 2037.61 1959.35 2042.05 1957.32 2046.48 1957.66 2051.44 1960.38 2056.91L1962.9 2061.8C1965.36 2066.5 1968.77 2069.52 1973.13 2070.84 1977.49 2072.17 1982.39 2071.48 1987.84 2068.76L1991.26 2067C1999.36 2062.93 2005.77 2057.26 2010.51 2049.98 2015.24 2042.69 2018.17 2033.24 2019.28 2021.63ZM1941.31 1950.13 1950.61 1945.34C1968.62 1936.12 1983.5 1933.61 1995.24 1937.81 2006.98 1942.02 2016.78 1952.02 2024.64 1967.83L2054.48 2025.79C2056.13 2028.9 2057.96 2030.71 2059.99 2031.23 2062.01 2031.75 2064.12 2031.41 2066.34 2030.21L2070.74 2027.94 2081.67 2049.18 2071.89 2054.22C2062.41 2058.91 2054.01 2059.98 2046.7 2057.42 2039.39 2054.85 2033.65 2049.53 2029.48 2041.45L2029.23 2040.96 2027.03 2042.09C2028.61 2051.8 2027.42 2060.87 2023.44 2069.31 2019.46 2077.75 2011.57 2085.1 1999.77 2091.34L1995.86 2093.36C1984.39 2099.29 1973.53 2101.2 1963.26 2099.1 1953 2096.99 1944.67 2090.02 1938.28 2078.19L1935.01 2071.83C1930.37 2062.88 1929.66 2053.43 1932.89 2043.48 1936.12 2033.54 1943.93 2023.96 1956.32 2014.75L1999.64 1983.48 1999.26 1982.75C1994.8 1973.47 1989.9 1967.42 1984.54 1964.6 1979.19 1961.78 1971.81 1962.81 1962.42 1967.68L1952.39 1972.84C1942.25 1978.15 1936.06 1983.48 1933.81 1988.83 1931.55 1994.18 1931.64 1999.83 1934.07 2005.79L1911.6 2017.35C1906.06 2002.75 1905.75 1989.89 1910.66 1978.77 1915.58 1967.64 1925.79 1958.1 1941.31 1950.13Z" fill="#FFFFFF" fill-rule="evenodd"/><text fill="#000000" fill-opacity="0" font-family="Arial,Arial_MSFontService,sans-serif" font-size="164.084" x="1907.2" y="2079.41">a</text></g></svg>