<svg width="1087" height="889" xmlns="http://www.w3.org/2000/svg" xmlns:xlink="http://www.w3.org/1999/xlink" xml:space="preserve" overflow="hidden"><g transform="translate(-2410 -570)"><rect x="2948" y="1204" width="435" height="22.9996" fill="#81D178"/><rect x="2509" y="1205" width="435" height="22" fill="#6DA2FF"/><path d="M2507.5 1200.78 3445.68 1200.78 3445.68 1204.22 2507.5 1204.22ZM3441.1 1188.75 3468.6 1202.5 3441.1 1216.25Z" fill="#0F204B"/><path d="M1.71875-1.02676e-06 1.7191 581.2-1.7184 581.2-1.71875 1.02676e-06ZM13.7503 576.617 0.000360892 604.117-13.7497 576.617Z" fill="#0F204B" transform="matrix(1 0 0 -1 2507.5 1202.62)"/><path d="M2507.5 1149.5 2507.5 1259.34" stroke="#0F204B" stroke-width="3.4375" stroke-linejoin="round" stroke-miterlimit="10" fill="none" fill-rule="evenodd"/><path d="M2947.5 1169.5 2947.5 1279.34" stroke="#FF0000" stroke-width="6.875" stroke-linejoin="round" stroke-miterlimit="10" fill="none" fill-rule="evenodd"/><text fill="#FF0000" font-family="Arial,Arial_MSFontService,sans-serif" font-weight="400" font-size="41" transform="matrix(1 0 0 1 2906.71 1318)">LCP</text><path d="M2507.5 1037.5 2946.86 1037.5" stroke="#6DA2FF" stroke-width="3.4375" stroke-linejoin="round" stroke-miterlimit="10" fill="none" fill-rule="evenodd"/><path d="M2944.5 738.5 3301.48 738.5" stroke="#81D178" stroke-width="3.4375" stroke-linejoin="round" stroke-miterlimit="10" fill="none" fill-rule="evenodd"/><path d="M22.9166-1.71871 190.51-1.71843 190.51 1.71907 22.9166 1.71879ZM27.5 13.75 0 0 27.5-13.75ZM185.927-13.7497 213.427 0.000360892 185.927 13.7503Z" fill="#0F204B" transform="matrix(-1 0 0 1 2944.93 1356.5)"/><text fill="#0F204B" font-family="Arial,Arial_MSFontService,sans-serif" font-weight="400" font-size="32" transform="matrix(1 0 0 1 2763.33 1402)">interpStart</text><path d="M0 0 0.000360892 317.708" stroke="#A6A6A6" stroke-width="3.4375" stroke-linecap="square" stroke-linejoin="round" stroke-miterlimit="10" stroke-dasharray="10.3125 3.4375" fill="none" fill-rule="evenodd" transform="matrix(1 0 0 -1 2731.5 1356.21)"/><path d="M0 0 0.000360892 618.051" stroke="#A6A6A6" stroke-width="3.4375" stroke-linecap="square" stroke-linejoin="round" stroke-miterlimit="10" stroke-dasharray="10.3125 3.4375" fill="none" fill-rule="evenodd" transform="matrix(1 0 0 -1 3169.5 1356.55)"/><text fill="#0F204B" font-family="Arial,Arial_MSFontService,sans-serif" font-weight="400" font-size="32" transform="matrix(1 0 0 1 2535.43 1024)">10 kn</text><text fill="#0F204B" font-family="Arial,Arial_MSFontService,sans-serif" font-weight="400" font-size="32" transform="matrix(1 0 0 1 3191.03 730)">15</text><text fill="#0F204B" font-family="Arial,Arial_MSFontService,sans-serif" font-weight="400" font-size="32" transform="matrix(1 0 0 1 3235.72 730)">kn</text><path d="M0 0 439.358 300.343" stroke="#FFC000" stroke-width="3.4375" stroke-linejoin="round" stroke-miterlimit="10" fill="none" fill-rule="evenodd" transform="matrix(1 0 0 -1 2731.5 1038.84)"/><path d="M2729.5 1039.5C2948.57 1039.21 2946.85 738.647 3168.5 737.5" stroke="#EC14D7" stroke-width="3.4375" stroke-linejoin="round" stroke-miterlimit="10" fill="none" fill-rule="evenodd"/><text fill="#0F204B" font-family="Arial,Arial_MSFontService,sans-serif" font-weight="400" font-size="38" transform="matrix(-1.83697e-16 -1 1 -1.83697e-16 2458.48 998)">SOG (kn)</text><path d="M2949.5 1338.5 2949.5 1373.01" stroke="#0F204B" stroke-width="3.4375" stroke-linejoin="round" stroke-miterlimit="10" fill="none" fill-rule="evenodd"/><text fill="#0F204B" font-family="Arial,Arial_MSFontService,sans-serif" font-weight="400" font-size="32" transform="matrix(1 0 0 1 2987.43 1402)">interpEnd </text><path d="M22.9166-1.71871 190.51-1.71843 190.51 1.71907 22.9166 1.71879ZM27.5 13.75 0 0 27.5-13.75ZM185.927-13.7497 213.427 0.000360892 185.927 13.7503Z" fill="#0F204B" transform="matrix(-1 0 0 1 3162.93 1356.5)"/><path d="M2618 607 2683.7 607" stroke="#FFC000" stroke-width="10.3125" stroke-linejoin="round" stroke-miterlimit="10" fill="none" fill-rule="evenodd"/><text fill="#0F204B" font-family="Arial,Arial_MSFontService,sans-serif" font-weight="400" font-size="32" transform="matrix(1 0 0 1 2706.27 618)">Linear</text><path d="M2618 646 2683.7 646" stroke="#EC14D7" stroke-width="10.3125" stroke-linejoin="round" stroke-miterlimit="10" fill="none" fill-rule="evenodd"/><text fill="#0F204B" font-family="Arial,Arial_MSFontService,sans-serif" font-weight="400" font-size="32" transform="matrix(1 0 0 1 2701.11 657)">Cosine</text><text fill="#0F204B" font-family="Arial,Arial_MSFontService,sans-serif" font-weight="400" font-size="28" transform="matrix(1 0 0 1 2781.62 1436)">(</text><text fill="#0F204B" font-family="Arial,Arial_MSFontService,sans-serif" font-weight="400" font-size="28" transform="matrix(1 0 0 1 2790.79 1436)">0.5nm</text><text fill="#0F204B" font-family="Arial,Arial_MSFontService,sans-serif" font-weight="400" font-size="28" transform="matrix(1 0 0 1 2867.56 1436)">)</text><text fill="#0F204B" font-family="Arial,Arial_MSFontService,sans-serif" font-weight="400" font-size="28" transform="matrix(1 0 0 1 3000.05 1436)">(0.7nm)</text><text fill="#6DA2FF" font-family="Arial,Arial_MSFontService,sans-serif" font-weight="400" font-size="46" transform="matrix(1 0 0 1 2645.99 1271)">Leg 1</text><text fill="#81D178" font-family="Arial,Arial_MSFontService,sans-serif" font-weight="400" font-size="46" transform="matrix(1 0 0 1 3085.47 1270)">Leg 2</text><path d="M0 0 0.000360892 302.058" stroke="#FF0000" stroke-width="3.4375" stroke-linejoin="round" stroke-miterlimit="10" fill="none" fill-rule="evenodd" transform="matrix(1 0 0 -1 2946.5 1038.56)"/></g></svg>